<?xml version="1.0" encoding="utf-8"?>
<!-- Generator: Adobe Illustrator 26.3.1, SVG Export Plug-In . SVG Version: 6.00 Build 0)  -->
<svg version="1.1" id="Camada_1" xmlns="http://www.w3.org/2000/svg" xmlns:xlink="http://www.w3.org/1999/xlink" x="0px" y="0px"
	 viewBox="0 0 1000 1000" style="enable-background:new 0 0 1000 1000;" xml:space="preserve">
<style type="text/css">
	.st0{fill:#FFFFFF;}
	.st1{fill:#FBFBFB;}
	.st2{fill:none;}
	.st3{opacity:0.15;fill:url(#SVGID_1_);}
	.st4{fill:url(#SVGID_00000174564020794751665930000003931418012372092074_);}
	.st5{opacity:3.000000e-02;fill:none;stroke:#FFFFFF;stroke-width:2;stroke-miterlimit:10;}
</style>
<g>
	<g>
		<g>
			<path class="st0" d="M262.9,546.3h15.6v54.6h33.8v12.7h-49.3V546.3z"/>
		</g>
		<g>
			<path class="st0" d="M338.8,584v-37.7h15.6v37.1c0,12.8,5.6,18.1,15,18.1c9.5,0,15-5.3,15-18.1v-37.1h15.4V584
				c0,19.8-11.4,30.8-30.5,30.8C350.2,614.8,338.8,603.8,338.8,584z"/>
		</g>
		<g>
			<path class="st0" d="M495.7,613.6l-0.1-40.4l-19.8,33.3h-7l-19.7-32.4v39.5h-14.6v-67.3h12.9l25.2,41.8l24.8-41.8h12.8l0.2,67.3
				H495.7z"/>
		</g>
		<g>
			<path class="st0" d="M541.3,580c0-20,15.6-34.8,36.8-34.8c21.2,0,36.8,14.7,36.8,34.8c0,20.1-15.7,34.8-36.8,34.8
				C556.9,614.8,541.3,600,541.3,580z M599.2,580c0-12.8-9-21.5-21.1-21.5c-12,0-21.1,8.8-21.1,21.5c0,12.8,9,21.5,21.1,21.5
				C590.2,601.5,599.2,592.8,599.2,580z"/>
		</g>
		<g>
			<path class="st0" d="M640.7,607l5.3-11.7c5.7,4.1,14.1,7,22.2,7c9.2,0,13-3.1,13-7.2c0-12.6-39.2-3.9-39.2-29
				c0-11.4,9.2-21,28.4-21c8.5,0,17.1,2,23.4,6l-4.8,11.8c-6.3-3.6-12.7-5.3-18.7-5.3c-9.2,0-12.8,3.5-12.8,7.7
				c0,12.4,39.2,3.8,39.2,28.6c0,11.3-9.3,20.9-28.6,20.9C657.4,614.8,646.6,611.6,640.7,607z"/>
		</g>
	</g>
	<g>
		
			<image style="overflow:visible;opacity:0.36;" width="2408" height="231" xlink:href="F8D7A52C.png"  transform="matrix(0.3997 0 0 0.3997 0.2 873.1613)">
		</image>
		<g>
			
				<image style="overflow:visible;" width="2298" height="131" xlink:href="F8D7A52B.png"  transform="matrix(0.3997 0 0 0.3997 24.1839 893.1478)">
			</image>
			<g>
				<g>
					<path class="st0" d="M38.6,907.2h-9v-3.3h21.8v3.3h-9v23.1h-3.7V907.2z"/>
					<path class="st0" d="M79.1,930.2l-5.7-8.1c-0.5,0-1.1,0.1-1.7,0.1h-6.5v8h-3.8v-26.3h10.3c6.9,0,11,3.5,11,9.2
						c0,4.1-2.1,7-5.8,8.3l6.2,8.8H79.1z M79,913.1c0-3.8-2.5-5.9-7.3-5.9h-6.4V919h6.4C76.5,919,79,916.8,79,913.1z"/>
					<path class="st0" d="M111.7,923.7h-14l-2.9,6.6h-3.9l11.9-26.3h3.7l12,26.3h-4L111.7,923.7z M110.4,920.6l-5.7-12.9L99,920.6
						H110.4z"/>
					<path class="st0" d="M148.2,927v3.3h-22v-2.6l16.6-20.5h-16.3v-3.3h21.3v2.6L131.2,927H148.2z"/>
					<path class="st0" d="M178.3,927v3.3h-19.1v-26.3h18.6v3.3H163v8.1h13.2v3.2H163v8.5H178.3z"/>
					<path class="st0" d="M213.1,903.9v26.3H210l-15.8-19.6v19.6h-3.8v-26.3h3.1l15.8,19.6v-19.6H213.1z"/>
					<path class="st0" d="M227.1,903.9h11.1c8.5,0,14.2,5.3,14.2,13.2c0,7.8-5.8,13.2-14.2,13.2h-11.1V903.9z M237.9,927
						c6.5,0,10.7-4,10.7-9.9s-4.2-9.9-10.7-9.9h-7.1V927H237.9z"/>
					<path class="st0" d="M262,917.1c0-7.7,5.9-13.5,14-13.5c8,0,14,5.7,14,13.5c0,7.8-5.9,13.5-14,13.5
						C268,930.5,262,924.8,262,917.1z M286.3,917.1c0-5.8-4.4-10.1-10.2-10.1c-5.9,0-10.3,4.3-10.3,10.1s4.4,10.1,10.3,10.1
						C281.9,927.2,286.3,922.9,286.3,917.1z"/>
					<path class="st0" d="M317.9,903.9h3.8V927H336v3.3h-18V903.9z"/>
					<path class="st0" d="M345.6,918.9v-15h3.8v14.8c0,5.8,2.7,8.5,7.4,8.5c4.7,0,7.5-2.6,7.5-8.5v-14.8h3.7v15
						c0,7.6-4.2,11.7-11.1,11.7C349.9,930.5,345.6,926.5,345.6,918.9z"/>
					<path class="st0" d="M401.4,927v3.3h-22v-2.6l16.6-20.5h-16.3v-3.3h21.3v2.6L384.4,927H401.4z"/>
					<path class="st0" d="M445.4,923.7h-14l-2.9,6.6h-3.9l11.9-26.3h3.7l12,26.3h-4L445.4,923.7z M444,920.6l-5.7-12.9l-5.7,12.9
						H444z"/>
					<path class="st0" d="M459.6,917.1c0-7.7,5.9-13.5,14-13.5c8,0,14,5.7,14,13.5c0,7.8-5.9,13.5-14,13.5
						C465.6,930.5,459.6,924.8,459.6,917.1z M483.9,917.1c0-5.8-4.4-10.1-10.2-10.1c-5.9,0-10.3,4.3-10.3,10.1s4.4,10.1,10.3,10.1
						C479.5,927.2,483.9,922.9,483.9,917.1z"/>
					<path class="st0" d="M497,927.2l1.4-2.9c2,1.8,5.3,3,8.7,3c4.6,0,6.5-1.8,6.5-4.1c0-6.4-16-2.4-16-12.2c0-4.1,3.2-7.5,10.1-7.5
						c3.1,0,6.3,0.8,8.5,2.3l-1.2,3c-2.3-1.5-4.9-2.1-7.2-2.1c-4.5,0-6.4,1.9-6.4,4.2c0,6.4,16,2.4,16,12.1c0,4-3.2,7.5-10.2,7.5
						C503.1,930.5,499.1,929.2,497,927.2z"/>
					<path class="st0" d="M542.5,927.2l1.4-2.9c2,1.8,5.3,3,8.7,3c4.6,0,6.5-1.8,6.5-4.1c0-6.4-16-2.4-16-12.2
						c0-4.1,3.2-7.5,10.1-7.5c3.1,0,6.3,0.8,8.5,2.3l-1.2,3c-2.3-1.5-4.9-2.1-7.2-2.1c-4.5,0-6.4,1.9-6.4,4.2c0,6.4,16,2.4,16,12.1
						c0,4-3.2,7.5-10.2,7.5C548.6,930.5,544.6,929.2,542.5,927.2z"/>
					<path class="st0" d="M593.5,927v3.3h-19.1v-26.3h18.6v3.3h-14.8v8.1h13.2v3.2h-13.2v8.5H593.5z"/>
					<path class="st0" d="M605.4,918.9v-15h3.8v14.8c0,5.8,2.7,8.5,7.4,8.5c4.7,0,7.5-2.6,7.5-8.5v-14.8h3.6v15
						c0,7.6-4.2,11.7-11.1,11.7C609.6,930.5,605.4,926.5,605.4,918.9z"/>
					<path class="st0" d="M639,927.2l1.4-2.9c2,1.8,5.3,3,8.7,3c4.6,0,6.5-1.8,6.5-4.1c0-6.4-16-2.4-16-12.2c0-4.1,3.2-7.5,10.1-7.5
						c3.1,0,6.3,0.8,8.5,2.3l-1.2,3c-2.3-1.5-4.9-2.1-7.2-2.1c-4.5,0-6.4,1.9-6.4,4.2c0,6.4,16,2.4,16,12.1c0,4-3.2,7.5-10.2,7.5
						C645,930.5,641.1,929.2,639,927.2z"/>
					<path class="st0" d="M708.2,913.1c0,5.7-4.1,9.2-11,9.2h-6.5v8h-3.8v-26.3h10.3C704,903.9,708.2,907.4,708.2,913.1z
						 M704.4,913.1c0-3.8-2.5-5.9-7.3-5.9h-6.4V919h6.4C701.9,919,704.4,916.8,704.4,913.1z"/>
					<path class="st0" d="M737.4,930.2l-5.7-8.1c-0.5,0-1.1,0.1-1.7,0.1h-6.5v8h-3.8v-26.3H730c6.9,0,11,3.5,11,9.2
						c0,4.1-2.1,7-5.8,8.3l6.2,8.8H737.4z M737.2,913.1c0-3.8-2.5-5.9-7.3-5.9h-6.4V919h6.4C734.7,919,737.2,916.8,737.2,913.1z"/>
					<path class="st0" d="M751,917.1c0-7.7,5.9-13.5,14-13.5c8,0,14,5.7,14,13.5c0,7.8-5.9,13.5-14,13.5
						C756.9,930.5,751,924.8,751,917.1z M775.2,917.1c0-5.8-4.4-10.1-10.2-10.1c-5.9,0-10.3,4.3-10.3,10.1s4.4,10.1,10.3,10.1
						C770.8,927.2,775.2,922.9,775.2,917.1z"/>
					<path class="st0" d="M785.9,926.7l2.2-2.6c1.4,2,3.3,3.1,5.5,3.1c3,0,4.5-1.8,4.5-5.3v-14.8h-9.5v-3.3h13.2v17.9
						c0,5.9-2.9,8.8-8.2,8.8C790.5,930.5,787.6,929.2,785.9,926.7z"/>
					<path class="st0" d="M834.6,927v3.3h-19.1v-26.3h18.6v3.3h-14.8v8.1h13.2v3.2h-13.2v8.5H834.6z"/>
					<path class="st0" d="M852,907.2h-9v-3.3h21.8v3.3h-9v23.1H852V907.2z"/>
					<path class="st0" d="M872.4,917.1c0-7.7,5.9-13.5,14-13.5c8,0,14,5.7,14,13.5c0,7.8-5.9,13.5-14,13.5
						C878.3,930.5,872.4,924.8,872.4,917.1z M896.6,917.1c0-5.8-4.4-10.1-10.2-10.1c-5.9,0-10.3,4.3-10.3,10.1s4.4,10.1,10.3,10.1
						C892.2,927.2,896.6,922.9,896.6,917.1z"/>
					<path class="st0" d="M909.7,927.2l1.4-2.9c2,1.8,5.3,3,8.7,3c4.6,0,6.5-1.8,6.5-4.1c0-6.4-16-2.4-16-12.2
						c0-4.1,3.2-7.5,10.1-7.5c3.1,0,6.3,0.8,8.5,2.3l-1.2,3c-2.3-1.5-4.9-2.1-7.2-2.1c-4.5,0-6.4,1.9-6.4,4.2c0,6.4,16,2.4,16,12.1
						c0,4-3.2,7.5-10.2,7.5C915.8,930.5,911.8,929.2,909.7,927.2z"/>
				</g>
			</g>
		</g>
	</g>
	<g>
		
			<image style="overflow:visible;opacity:0.1;" width="689" height="688" xlink:href="F8D7A534.png"  transform="matrix(1 0 0 1 165 187)">
		</image>
		<g>
			
				<image style="overflow:visible;opacity:0.9;" width="608" height="608" xlink:href="F8D7A537.png"  transform="matrix(1 0 0 1 205 227)">
			</image>
			<g>
				<path class="st1" d="M803.3,580c0,19.5-1.6,38.6-4.7,57.2c-12.3,73.5-48.1,139.1-99.3,188.9c48.9-50.3,82.5-115.6,93.2-188.3
					c2.5-16.5,3.7-33.4,3.7-50.6c0-189.4-153.6-343-343-343c-15.3,0-30.3,1-45,2.9c-75,9.8-142.3,43.9-193.9,94
					c51-52.6,118.7-88.8,194.6-100.2c16.8-2.5,33.9-3.8,51.4-3.8C649.7,237,803.3,390.6,803.3,580z"/>
			</g>
		</g>
	</g>
	<g>
		<line class="st2" x1="705.8" y1="311.4" x2="651.7" y2="396"/>
		<circle class="st2" cx="705.8" cy="311.4" r="83.7"/>
		<circle class="st2" cx="705.8" cy="311.4" r="100.4"/>
		<polyline class="st2" points="705.8,311.4 447.5,136.6 705.8,311.4 964,486.2 705.8,311.4 880.6,53.2 705.8,311.4 530.9,569.6 
			705.8,311.4 595.8,-14.8 705.8,311.4 815.7,637.5 705.8,311.4 1031.9,201.4 705.8,311.4 379.6,421.4 705.8,311.4 550.6,176 
			705.8,311.4 861,446.7 705.8,311.4 841.1,156.2 705.8,311.4 570.4,466.6 705.8,311.4 562.4,-24.4 705.8,311.4 849.2,647.2 
			705.8,311.4 1041.6,168 705.8,311.4 370,454.8 705.8,311.4 637.7,248.3 705.8,311.4 773.8,374.5 705.8,311.4 768.9,243.4 
			705.8,311.4 642.6,379.4 705.8,311.4 542.2,244.6 705.8,311.4 869.3,378.2 705.8,311.4 772.6,147.8 705.8,311.4 638.9,475 
			705.8,311.4 418.6,329.6 705.8,311.4 993,293.2 705.8,311.4 687.6,24.2 705.8,311.4 723.9,598.6 705.8,311.4 347.1,178.5 
			705.8,311.4 1064.4,444.3 705.8,311.4 838.6,-47.2 705.8,311.4 572.9,670 705.8,311.4 563.6,237.5 705.8,311.4 847.9,385.3 
			705.8,311.4 779.6,169.2 705.8,311.4 631.9,453.6 705.8,311.4 445.8,177.2 705.8,311.4 965.8,445.6 705.8,311.4 840,51.4 
			705.8,311.4 571.6,571.4 705.8,311.4 610.2,298.3 705.8,311.4 801.3,324.5 705.8,311.4 718.8,215.8 705.8,311.4 692.7,407 
			705.8,311.4 500.3,146.6 705.8,311.4 911.3,476.2 705.8,311.4 870.6,105.9 705.8,311.4 540.9,516.9 705.8,311.4 219,204.8 
			705.8,311.4 1192.5,418 705.8,311.4 812.4,-175.4 705.8,311.4 599.2,798.2 705.8,311.4 345.3,164.8 705.8,311.4 1066.2,457.9 
			705.8,311.4 852.3,-49.1 705.8,311.4 559.2,671.8 705.8,311.4 504.3,354.6 705.8,311.4 907.2,268.2 705.8,311.4 662.6,110 
			705.8,311.4 749,512.8 		"/>
		<radialGradient id="SVGID_1_" cx="705.7589" cy="311.3896" r="200.7643" gradientUnits="userSpaceOnUse">
			<stop  offset="1.325964e-07" style="stop-color:#000000;stop-opacity:0"/>
			<stop  offset="0.73" style="stop-color:#934922"/>
			<stop  offset="1" style="stop-color:#000000;stop-opacity:0"/>
		</radialGradient>
		<circle class="st3" cx="705.8" cy="311.4" r="200.8"/>
		
			<radialGradient id="SVGID_00000143601125337922907480000007672246911300751806_" cx="705.7589" cy="311.3896" r="83.6518" gradientUnits="userSpaceOnUse">
			<stop  offset="0.15" style="stop-color:#FFFFFF"/>
			<stop  offset="0.2824" style="stop-color:#C2C2C2;stop-opacity:0.8443"/>
			<stop  offset="0.4253" style="stop-color:#888888;stop-opacity:0.6761"/>
			<stop  offset="0.5636" style="stop-color:#575757;stop-opacity:0.5134"/>
			<stop  offset="0.6936" style="stop-color:#313131;stop-opacity:0.3605"/>
			<stop  offset="0.8134" style="stop-color:#161616;stop-opacity:0.2196"/>
			<stop  offset="0.9192" style="stop-color:#060606;stop-opacity:9.504855e-02"/>
			<stop  offset="1" style="stop-color:#000000;stop-opacity:0"/>
		</radialGradient>
		<circle style="fill:url(#SVGID_00000143601125337922907480000007672246911300751806_);" cx="705.8" cy="311.4" r="83.7"/>
		<polyline class="st5" points="705.8,311.4 447.5,136.6 705.8,311.4 964,486.2 705.8,311.4 880.6,53.2 705.8,311.4 530.9,569.6 
			705.8,311.4 595.8,-14.8 705.8,311.4 815.7,637.5 705.8,311.4 1031.9,201.4 705.8,311.4 379.6,421.4 705.8,311.4 550.6,176 
			705.8,311.4 861,446.7 705.8,311.4 841.1,156.2 705.8,311.4 570.4,466.6 705.8,311.4 562.4,-24.4 705.8,311.4 849.2,647.2 
			705.8,311.4 1041.6,168 705.8,311.4 370,454.8 705.8,311.4 637.7,248.3 705.8,311.4 773.8,374.5 705.8,311.4 768.9,243.4 
			705.8,311.4 642.6,379.4 705.8,311.4 542.2,244.6 705.8,311.4 869.3,378.2 705.8,311.4 772.6,147.8 705.8,311.4 638.9,475 
			705.8,311.4 418.6,329.6 705.8,311.4 993,293.2 705.8,311.4 687.6,24.2 705.8,311.4 723.9,598.6 705.8,311.4 347.1,178.5 
			705.8,311.4 1064.4,444.3 705.8,311.4 838.6,-47.2 705.8,311.4 572.9,670 705.8,311.4 563.6,237.5 705.8,311.4 847.9,385.3 
			705.8,311.4 779.6,169.2 705.8,311.4 631.9,453.6 705.8,311.4 445.8,177.2 705.8,311.4 965.8,445.6 705.8,311.4 840,51.4 
			705.8,311.4 571.6,571.4 705.8,311.4 610.2,298.3 705.8,311.4 801.3,324.5 705.8,311.4 718.8,215.8 705.8,311.4 692.7,407 
			705.8,311.4 500.3,146.6 705.8,311.4 911.3,476.2 705.8,311.4 870.6,105.9 705.8,311.4 540.9,516.9 705.8,311.4 219,204.8 
			705.8,311.4 1192.5,418 705.8,311.4 812.4,-175.4 705.8,311.4 599.2,798.2 705.8,311.4 345.3,164.8 705.8,311.4 1066.2,457.9 
			705.8,311.4 852.3,-49.1 705.8,311.4 559.2,671.8 705.8,311.4 504.3,354.6 705.8,311.4 907.2,268.2 705.8,311.4 662.6,110 
			705.8,311.4 749,512.8 		"/>
	</g>
</g>
</svg>
