<?xml version="1.0" encoding="utf-8"?>
<!-- Generator: Adobe Illustrator 26.3.1, SVG Export Plug-In . SVG Version: 6.00 Build 0)  -->
<svg version="1.1" id="Camada_1" xmlns="http://www.w3.org/2000/svg" xmlns:xlink="http://www.w3.org/1999/xlink" x="0px" y="0px"
	 viewBox="0 0 1000 1000" style="enable-background:new 0 0 1000 1000;" xml:space="preserve">
<style type="text/css">
	.st0{fill:#FFFFFF;}
	.st1{enable-background:new    ;}
	.st2{fill:#FCFCFC;}
	.st3{fill:none;}
	.st4{opacity:0.15;fill:url(#SVGID_1_);enable-background:new    ;}
	.st5{fill:url(#SVGID_00000013176611980885624730000000942053319459028653_);}
	.st6{opacity:3.000000e-02;fill:none;stroke:#FFFFFF;stroke-width:2;stroke-miterlimit:10;enable-background:new    ;}
</style>
<g>
	<g>
		<g>
			<path class="st0" d="M239.3,564.4h16v56h34.6v13h-50.6L239.3,564.4L239.3,564.4z"/>
		</g>
		<g>
			<path class="st0" d="M317.1,603v-38.7h16v38.1c0,13.1,5.7,18.5,15.4,18.5c9.8,0,15.4-5.4,15.4-18.5v-38.1h15.8V603
				c0,20.3-11.6,31.5-31.3,31.5C328.8,634.6,317.1,623.3,317.1,603z"/>
		</g>
		<g>
			<path class="st0" d="M478,633.4l-0.1-41.4l-20.3,34.1h-7.2l-20.2-33.2v40.5h-15v-69h13.2l25.8,42.9l25.4-42.9h13.1l0.2,69
				L478,633.4L478,633.4z"/>
		</g>
		<g>
			<path class="st0" d="M524.7,598.9c0-20.5,16-35.7,37.8-35.7c21.7,0,37.8,15.1,37.8,35.7c0,20.6-16.1,35.7-37.8,35.7
				C540.7,634.6,524.7,619.4,524.7,598.9z M584,598.9c0-13.1-9.3-22.1-21.6-22.1c-12.3,0-21.6,9-21.6,22.1
				c0,13.1,9.3,22.1,21.6,22.1C574.8,621,584,612,584,598.9z"/>
		</g>
		<g>
			<path class="st0" d="M626.5,626.6l5.4-12c5.8,4.2,14.5,7.2,22.8,7.2c9.5,0,13.3-3.2,13.3-7.4c0-12.9-40.1-4-40.1-29.7
				c0-11.7,9.5-21.5,29.1-21.5c8.7,0,17.5,2.1,24,6.1l-4.9,12.1c-6.4-3.7-13-5.4-19.1-5.4c-9.5,0-13.1,3.5-13.1,7.9
				c0,12.7,40.1,3.9,40.1,29.3c0,11.5-9.6,21.4-29.3,21.4C643.7,634.6,632.7,631.3,626.5,626.6z"/>
		</g>
	</g>
	<g>
		<g>
			<g class="st1">
				<path class="st0" d="M9.4,934.3H0.2v-3.4h22.3v3.4h-9.3v23.6H9.4V934.3z"/>
				<path class="st0" d="M50.7,957.9l-5.8-8.3c-0.5,0-1.1,0.1-1.7,0.1h-6.7v8.2h-3.9v-27h10.5c7,0,11.3,3.5,11.3,9.4
					c0,4.2-2.2,7.2-5.9,8.5l6.4,9.1H50.7z M50.6,940.4c0-3.9-2.6-6.1-7.5-6.1h-6.6v12.2h6.6C48,946.4,50.6,944.2,50.6,940.4z"/>
				<path class="st0" d="M83.9,951.2H69.6l-3,6.8h-4l12.2-27h3.8l12.3,27h-4.1L83.9,951.2z M82.6,948.1l-5.8-13.2l-5.8,13.2H82.6z"
					/>
				<path class="st0" d="M121.1,954.6v3.4H98.5v-2.6l17-21H98.8v-3.4h21.8v2.6l-16.9,21H121.1z"/>
				<path class="st0" d="M151.9,954.6v3.4h-19.6v-27h19.1v3.4h-15.2v8.3h13.5v3.3h-13.5v8.7H151.9z"/>
				<path class="st0" d="M187.3,930.9v27h-3.2l-16.2-20.1v20.1h-3.9v-27h3.2l16.2,20.1v-20.1H187.3z"/>
				<path class="st0" d="M201.4,930.9h11.4c8.7,0,14.6,5.5,14.6,13.5s-5.9,13.5-14.6,13.5h-11.4V930.9z M212.5,954.6
					c6.7,0,11-4.1,11-10.1s-4.3-10.1-11-10.1h-7.3v20.3H212.5z"/>
				<path class="st0" d="M237,944.4c0-7.9,6.1-13.8,14.4-13.8c8.2,0,14.3,5.9,14.3,13.8s-6.1,13.8-14.3,13.8
					C243.1,958.3,237,952.3,237,944.4z M261.9,944.4c0-6-4.5-10.4-10.5-10.4c-6.1,0-10.5,4.4-10.5,10.4s4.5,10.4,10.5,10.4
					C257.4,954.8,261.9,950.4,261.9,944.4z"/>
				<path class="st0" d="M294,930.9h3.9v23.6h14.6v3.4H294V930.9z"/>
				<path class="st0" d="M322.2,946.3v-15.4h3.9v15.2c0,6,2.7,8.7,7.6,8.7s7.6-2.7,7.6-8.7v-15.2h3.7v15.4c0,7.8-4.3,12-11.4,12
					C326.5,958.3,322.2,954.1,322.2,946.3z"/>
				<path class="st0" d="M379.1,954.6v3.4h-22.6v-2.6l17-21h-16.7v-3.4h21.8v2.6l-16.9,21H379.1z"/>
				<path class="st0" d="M423.8,951.2h-14.3l-3,6.8h-4l12.2-27h3.8l12.3,27h-4.1L423.8,951.2z M422.5,948.1l-5.8-13.2l-5.8,13.2
					H422.5z"/>
				<path class="st0" d="M438.2,944.4c0-7.9,6.1-13.8,14.4-13.8c8.2,0,14.3,5.9,14.3,13.8s-6.1,13.8-14.3,13.8
					C444.3,958.3,438.2,952.3,438.2,944.4z M463.1,944.4c0-6-4.5-10.4-10.5-10.4c-6.1,0-10.5,4.4-10.5,10.4s4.5,10.4,10.5,10.4
					C458.6,954.8,463.1,950.4,463.1,944.4z"/>
				<path class="st0" d="M476.4,954.9l1.4-3c2,1.8,5.4,3.1,8.9,3.1c4.7,0,6.7-1.8,6.7-4.2c0-6.6-16.4-2.4-16.4-12.5
					c0-4.2,3.2-7.7,10.3-7.7c3.2,0,6.4,0.8,8.7,2.4l-1.3,3.1c-2.4-1.5-5-2.2-7.4-2.2c-4.6,0-6.6,1.9-6.6,4.3
					c0,6.6,16.4,2.5,16.4,12.4c0,4.1-3.3,7.7-10.5,7.7C482.6,958.3,478.5,956.9,476.4,954.9z"/>
				<path class="st0" d="M522.7,954.9l1.4-3c2,1.8,5.4,3.1,8.9,3.1c4.7,0,6.7-1.8,6.7-4.2c0-6.6-16.4-2.4-16.4-12.5
					c0-4.2,3.2-7.7,10.3-7.7c3.2,0,6.4,0.8,8.7,2.4l-1.3,3.1c-2.4-1.5-5-2.2-7.4-2.2c-4.6,0-6.6,1.9-6.6,4.3
					c0,6.6,16.4,2.5,16.4,12.4c0,4.1-3.3,7.7-10.5,7.7C528.9,958.3,524.8,956.9,522.7,954.9z"/>
				<path class="st0" d="M574.7,954.6v3.4h-19.6v-27h19.1v3.4h-15.2v8.3h13.5v3.3h-13.5v8.7H574.7z"/>
				<path class="st0" d="M586.7,946.3v-15.4h3.9v15.2c0,6,2.7,8.7,7.6,8.7s7.6-2.7,7.6-8.7v-15.2h3.7v15.4c0,7.8-4.3,12-11.4,12
					C591,958.3,586.7,954.1,586.7,946.3z"/>
				<path class="st0" d="M620.9,954.9l1.4-3c2,1.8,5.4,3.1,8.9,3.1c4.7,0,6.7-1.8,6.7-4.2c0-6.6-16.4-2.4-16.4-12.5
					c0-4.2,3.2-7.7,10.3-7.7c3.2,0,6.4,0.8,8.7,2.4l-1.3,3.1c-2.4-1.5-5-2.2-7.4-2.2c-4.6,0-6.6,1.9-6.6,4.3
					c0,6.6,16.4,2.5,16.4,12.4c0,4.1-3.3,7.7-10.5,7.7C627.1,958.3,623.1,956.9,620.9,954.9z"/>
				<path class="st0" d="M691.5,940.4c0,5.9-4.2,9.4-11.3,9.4h-6.7v8.2h-3.9v-27h10.5C687.2,930.9,691.5,934.5,691.5,940.4z
					 M687.6,940.4c0-3.9-2.6-6.1-7.5-6.1h-6.6v12.1h6.6C685,946.4,687.6,944.2,687.6,940.4z"/>
				<path class="st0" d="M721.2,957.9l-5.8-8.3c-0.5,0-1.1,0.1-1.7,0.1H707v8.2h-3.9v-27h10.5c7,0,11.3,3.5,11.3,9.4
					c0,4.2-2.2,7.2-5.9,8.5l6.4,9.1H721.2z M721.1,940.4c0-3.9-2.6-6.1-7.5-6.1H707v12.2h6.6C718.5,946.4,721.1,944.2,721.1,940.4z"
					/>
				<path class="st0" d="M735,944.4c0-7.9,6.1-13.8,14.4-13.8c8.2,0,14.3,5.9,14.3,13.8s-6.1,13.8-14.3,13.8
					C741.1,958.3,735,952.3,735,944.4z M759.8,944.4c0-6-4.5-10.4-10.5-10.4c-6.1,0-10.5,4.4-10.5,10.4s4.5,10.4,10.5,10.4
					C755.3,954.8,759.8,950.4,759.8,944.4z"/>
				<path class="st0" d="M770.6,954.4l2.2-2.6c1.5,2.1,3.4,3.2,5.6,3.2c3,0,4.6-1.9,4.6-5.5v-15.2h-9.8v-3.4h13.6v18.3
					c0,6-2.9,9-8.4,9C775.2,958.3,772.3,956.9,770.6,954.4z"/>
				<path class="st0" d="M820.3,954.6v3.4h-19.6v-27h19.1v3.4h-15.2v8.3h13.5v3.3h-13.5v8.7H820.3z"/>
				<path class="st0" d="M837.9,934.3h-9.3v-3.4H851v3.4h-9.3v23.6h-3.8V934.3z"/>
				<path class="st0" d="M858.6,944.4c0-7.9,6.1-13.8,14.4-13.8c8.2,0,14.3,5.9,14.3,13.8s-6.1,13.8-14.3,13.8
					C864.7,958.3,858.6,952.3,858.6,944.4z M883.5,944.4c0-6-4.5-10.4-10.5-10.4c-6.1,0-10.5,4.4-10.5,10.4s4.5,10.4,10.5,10.4
					C879,954.8,883.5,950.4,883.5,944.4z"/>
				<path class="st0" d="M896.7,954.9l1.4-3c2,1.8,5.4,3.1,8.9,3.1c4.7,0,6.7-1.8,6.7-4.2c0-6.6-16.4-2.4-16.4-12.5
					c0-4.2,3.2-7.7,10.3-7.7c3.2,0,6.4,0.8,8.7,2.4l-1.3,3.1c-2.4-1.5-5-2.2-7.4-2.2c-4.6,0-6.6,1.9-6.6,4.3
					c0,6.6,16.4,2.5,16.4,12.4c0,4.1-3.3,7.7-10.5,7.7C902.9,958.3,898.9,956.9,896.7,954.9z"/>
			</g>
		</g>
	</g>
	<g>
		
			<image style="overflow:visible;opacity:0.1;enable-background:new    ;" width="2929" height="2925" xlink:href="F8D7A52F.png"  transform="matrix(0.2396 0 0 0.2396 141.6422 197.4943)">
		</image>
		<g>
			
				<image style="overflow:visible;opacity:0.9;enable-background:new    ;" width="2592" height="2596" xlink:href="F8D7A52D.png"  transform="matrix(0.2395 0 0 0.2395 180.8813 238.2951)">
			</image>
			<g>
				<path class="st2" d="M793.2,598.9c0,20-1.7,39.5-4.9,58.6c-12.6,75.4-49.3,142.6-101.8,193.6c50.1-51.6,84.5-118.5,95.6-193
					c2.5-16.9,3.8-34.3,3.8-51.9c0-194.2-157.4-351.6-351.6-351.6c-15.6,0-31,1-46.1,3c-76.8,10.1-145.9,45-198.8,96.4
					c52.3-53.9,121.7-91,199.5-102.7c17.2-2.6,34.8-3.9,52.7-3.9C635.8,247.3,793.2,404.7,793.2,598.9z"/>
			</g>
		</g>
	</g>
	<g>
		<line class="st3" x1="693.2" y1="323.6" x2="637.8" y2="410.3"/>
		<circle class="st3" cx="693.2" cy="323.6" r="85.8"/>
		<circle class="st3" cx="693.2" cy="323.6" r="102.9"/>
		<polyline class="st3" points="693.2,323.6 428.6,144.4 693.2,323.6 957.9,502.8 693.2,323.6 872.5,58.9 693.2,323.6 514,588.3 
			693.2,323.6 580.5,-10.7 693.2,323.6 806,657.9 693.2,323.6 1027.6,210.9 693.2,323.6 358.9,436.3 693.2,323.6 534.2,184.9 
			693.2,323.6 852.3,462.3 693.2,323.6 832,164.5 693.2,323.6 554.5,482.7 693.2,323.6 546.3,-20.6 693.2,323.6 840.2,667.8 
			693.2,323.6 1037.4,176.6 693.2,323.6 349,470.6 693.2,323.6 623.5,258.9 693.2,323.6 763,388.3 693.2,323.6 757.9,253.9 
			693.2,323.6 628.5,393.3 693.2,323.6 525.6,255.1 693.2,323.6 860.9,392.1 693.2,323.6 761.8,155.9 693.2,323.6 624.7,491.3 
			693.2,323.6 398.9,342.2 693.2,323.6 987.6,305 693.2,323.6 674.6,29.2 693.2,323.6 711.9,618 693.2,323.6 325.6,187.4 
			693.2,323.6 1060.8,459.8 693.2,323.6 829.4,-44 693.2,323.6 557,691.2 693.2,323.6 547.5,247.9 693.2,323.6 839,399.3 
			693.2,323.6 769,177.9 693.2,323.6 617.5,469.3 693.2,323.6 426.7,186.1 693.2,323.6 959.7,461.1 693.2,323.6 830.8,57.1 
			693.2,323.6 555.7,590.1 693.2,323.6 595.3,310.2 693.2,323.6 791.2,337 693.2,323.6 706.7,225.6 693.2,323.6 679.8,421.5 
			693.2,323.6 482.6,154.7 693.2,323.6 903.9,492.5 693.2,323.6 862.2,112.9 693.2,323.6 524.3,534.2 693.2,323.6 194.3,214.3 
			693.2,323.6 1192.2,432.9 693.2,323.6 802.5,-175.4 693.2,323.6 584,822.6 693.2,323.6 323.8,173.4 693.2,323.6 1062.7,473.8 
			693.2,323.6 843.5,-45.9 693.2,323.6 543,693.1 693.2,323.6 486.8,367.9 693.2,323.6 899.7,279.3 693.2,323.6 649,117.2 
			693.2,323.6 737.5,530 		"/>
		
			<radialGradient id="SVGID_1_" cx="693.24" cy="674.2898" r="205.79" gradientTransform="matrix(1 0 0 -1 0 997.8898)" gradientUnits="userSpaceOnUse">
			<stop  offset="0" style="stop-color:#000000"/>
			<stop  offset="0.73" style="stop-color:#834A29"/>
			<stop  offset="1" style="stop-color:#000000"/>
		</radialGradient>
		<circle class="st4" cx="693.2" cy="323.6" r="205.8"/>
		
			<radialGradient id="SVGID_00000147218823059308439050000003445480505072939174_" cx="693.24" cy="674.2899" r="85.75" gradientTransform="matrix(1 0 0 -1 0 997.8898)" gradientUnits="userSpaceOnUse">
			<stop  offset="0.15" style="stop-color:#FFFFFF"/>
			<stop  offset="0.2824" style="stop-color:#C2C2C2"/>
			<stop  offset="0.4253" style="stop-color:#888888"/>
			<stop  offset="0.5636" style="stop-color:#575757"/>
			<stop  offset="0.6936" style="stop-color:#313131"/>
			<stop  offset="0.8134" style="stop-color:#161616"/>
			<stop  offset="0.9192" style="stop-color:#060606"/>
			<stop  offset="1" style="stop-color:#000000"/>
		</radialGradient>
		<circle style="fill:url(#SVGID_00000147218823059308439050000003445480505072939174_);" cx="693.2" cy="323.6" r="85.8"/>
		<polyline class="st6" points="693.2,323.6 428.6,144.4 693.2,323.6 957.9,502.8 693.2,323.6 872.5,58.9 693.2,323.6 514,588.3 
			693.2,323.6 580.5,-10.7 693.2,323.6 806,657.9 693.2,323.6 1027.6,210.9 693.2,323.6 358.9,436.3 693.2,323.6 534.2,184.9 
			693.2,323.6 852.3,462.3 693.2,323.6 832,164.5 693.2,323.6 554.5,482.7 693.2,323.6 546.3,-20.6 693.2,323.6 840.2,667.8 
			693.2,323.6 1037.4,176.6 693.2,323.6 349,470.6 693.2,323.6 623.5,258.9 693.2,323.6 763,388.3 693.2,323.6 757.9,253.9 
			693.2,323.6 628.5,393.3 693.2,323.6 525.6,255.1 693.2,323.6 860.9,392.1 693.2,323.6 761.8,155.9 693.2,323.6 624.7,491.3 
			693.2,323.6 398.9,342.2 693.2,323.6 987.6,305 693.2,323.6 674.6,29.2 693.2,323.6 711.9,618 693.2,323.6 325.6,187.4 
			693.2,323.6 1060.8,459.8 693.2,323.6 829.4,-44 693.2,323.6 557,691.2 693.2,323.6 547.5,247.9 693.2,323.6 839,399.3 
			693.2,323.6 769,177.9 693.2,323.6 617.5,469.3 693.2,323.6 426.7,186.1 693.2,323.6 959.7,461.1 693.2,323.6 830.8,57.1 
			693.2,323.6 555.7,590.1 693.2,323.6 595.3,310.2 693.2,323.6 791.2,337 693.2,323.6 706.7,225.6 693.2,323.6 679.8,421.5 
			693.2,323.6 482.6,154.7 693.2,323.6 903.9,492.5 693.2,323.6 862.2,112.9 693.2,323.6 524.3,534.2 693.2,323.6 194.3,214.3 
			693.2,323.6 1192.2,432.9 693.2,323.6 802.5,-175.4 693.2,323.6 584,822.6 693.2,323.6 323.8,173.4 693.2,323.6 1062.7,473.8 
			693.2,323.6 843.5,-45.9 693.2,323.6 543,693.1 693.2,323.6 486.8,367.9 693.2,323.6 899.7,279.3 693.2,323.6 649,117.2 
			693.2,323.6 737.5,530 		"/>
	</g>
</g>
</svg>
